<svg id="Capa_1" enable-background="new 0 0 512 512" height="512" viewBox="0 0 512 512" width="512" xmlns="http://www.w3.org/2000/svg"><g><path d="m256 0c-35.241 0-69.727 12.165-97.104 34.253-26.938 21.735-46.045 52.203-53.802 85.791-.139.6-.24 1.207-.304 1.818l-10.422 99.896c-5.468 26.173-14.148 51.261-25.805 74.574-4.948 9.894-7.563 20.972-7.563 32.036 0 22.482 10.3 43.233 28.258 56.933 2.614 1.994 5.811 3.074 9.098 3.074h153.644c8.284 0 15-6.716 15-15v-170.875h144v-47.5c0-85.467-69.533-155-155-155z" fill="#08475e"/><path d="m256 0v387.819c6.339-1.753 11-7.547 11-14.444v-170.875h144v-47.5c0-85.467-69.533-155-155-155z" fill="#05303d"/><path d="m331 165v60c0 8.284 6.716 15 15 15h27.5c20.711 0 37.5-16.789 37.5-37.5 0-20.711-16.789-37.5-37.5-37.5z" fill="#e3a76f"/><path d="m356 350h-52.5v-40h-95v40h-27.5l-15 24v117l15 21h8l197-17 15 17h55c8.284 0 15-6.716 15-15v-32c0-63.411-51.589-115-115-115z" fill="#f2bb88"/><path d="m356 350h-52.5v-40h-47.5v196.218l130-11.218 15 17h55c8.284 0 15-6.716 15-15v-32c0-63.411-51.589-115-115-115z" fill="#e3a76f"/><path d="m41 465v32c0 8.284 6.716 15 15 15h95l15-10v-137l-15-14.885c-61.1 2.628-110 53.15-110 114.885z" fill="#f9f9f9"/><path d="m386 512v-27c0-22.091-17.909-40-40-40h-180v67z" fill="#f9f9f9"/><path d="m346 430h-180v30h180c13.785 0 25 11.215 25 25v27h30v-27c0-30.327-24.673-55-55-55z" fill="#ffc178"/><path d="m386 485c0-22.091-17.909-40-40-40h-90v67h130z" fill="#e2dff4"/><path d="m346 430h-90v30h90c13.785 0 25 11.215 25 25v27h30v-27c0-30.327-24.673-55-55-55z" fill="#ff936b"/><path d="m156 350c-1.676 0-3.341.044-5 .115v161.885h30v-162z" fill="#fff17d"/><path d="m256 340c-57.897 0-105-47.103-105-105v-16.332c0-.711.051-1.42.151-2.124l10.383-72.598c.21-1.47.638-2.9 1.269-4.245 11.803-25.165 31.864-45.805 56.489-58.117 4.648-2.326 10.172-2.077 14.594.656 4.423 2.734 7.114 7.562 7.114 12.76 0 17.731 17.358 30.505 27.705 36.541 20.406 11.903 47.857 18.459 77.295 18.459 8.284 0 15 6.716 15 15v70c0 57.897-47.103 105-105 105z" fill="#f2d1a5"/><path d="m346 150c-29.438 0-56.889-6.556-77.295-18.459-3.709-2.164-8.317-5.197-12.705-9.01v217.469c57.897 0 105-47.103 105-105v-70c0-8.284-6.716-15-15-15z" fill="#f2bb88"/><path d="m148.672 240.021c-5.543.001-11.092-1.09-16.32-3.271-13.446 5.605-29.005 4.008-41.145-4.812-12.141-8.821-18.469-23.124-17.293-37.645-9.485-11.056-12.773-26.346-8.137-40.618 4.638-14.272 16.286-24.711 30.459-28.079 7.583-12.438 21.109-20.29 36.115-20.29s28.532 7.852 36.115 20.29c14.174 3.367 25.82 13.805 30.459 28.077v.002c4.637 14.271 1.348 29.563-8.138 40.618 1.177 14.521-5.15 28.823-17.292 37.645-7.417 5.39-16.114 8.083-24.823 8.083z" fill="#fff17d"/><g><path d="m198.926 153.676s0-.001 0-.002c-4.639-14.272-16.285-24.71-30.459-28.077-7.583-12.438-21.109-20.29-36.115-20.29v131.443c5.229 2.181 10.777 3.271 16.32 3.271 8.709 0 17.406-2.692 24.824-8.082 12.142-8.821 18.469-23.124 17.292-37.645 9.485-11.055 12.774-26.347 8.138-40.618z" fill="#ffc178"/></g></g></svg>